<?xml version="1.0" standalone="no"?>
<!DOCTYPE svg PUBLIC "-//W3C//DTD SVG 20010904//EN"
 "http://www.w3.org/TR/2001/REC-SVG-20010904/DTD/svg10.dtd">
<svg version="1.0" xmlns="http://www.w3.org/2000/svg"
viewBox="0 0 746.000000 746.000000"
 preserveAspectRatio="xMidYMid meet">
<g transform="translate(0.000000,746.000000) scale(0.100000,-0.100000)"
fill="#000000" stroke="none">
<path d="M1721 7449 c-516 -54 -1015 -344 -1342 -779 -162 -216 -279 -480
-346 -780 l-27 -125 -4 -1985 c-2 -1769 -1 -1997 13 -2095 34 -232 93 -423
192 -618 272 -534 750 -901 1348 -1035 l120 -27 1995 -3 c1434 -2 2023 0 2095
8 294 34 616 160 888 350 121 85 361 325 449 450 166 235 279 504 336 795 16
84 17 232 17 2120 l0 2030 -23 119 c-61 319 -213 639 -423 891 -269 322 -670
566 -1073 651 -211 45 -165 44 -2201 42 -1062 0 -1968 -5 -2014 -9z m4067
-596 c273 -63 474 -170 664 -351 206 -198 327 -406 396 -682 l27 -105 3 -1935
c3 -2149 6 -2051 -63 -2257 -164 -491 -587 -853 -1084 -928 -148 -23 -3875
-22 -4004 0 -504 89 -915 436 -1071 905 -77 232 -71 44 -71 2230 0 1851 1
1960 18 2040 73 340 258 634 526 836 107 80 317 185 436 219 195 55 124 53
2205 51 l1925 -2 93 -21z"/>
<path d="M5796 6419 c-171 -40 -324 -193 -371 -370 -29 -107 -14 -253 36 -352
103 -204 337 -319 555 -274 335 71 506 424 354 734 -59 119 -189 222 -325 258
-64 16 -187 18 -249 4z"/>
<path d="M3410 6035 c-524 -74 -994 -308 -1361 -676 -621 -625 -843 -1551
-570 -2377 125 -379 300 -664 580 -942 487 -486 1144 -731 1821 -681 501 37
985 237 1368 566 415 357 695 856 786 1400 85 506 -15 1077 -265 1518 -313
550 -815 948 -1414 1121 -217 62 -340 79 -610 82 -164 2 -270 -1 -335 -11z
m539 -581 c218 -31 396 -89 581 -186 511 -270 849 -750 935 -1328 23 -153 16
-428 -15 -575 -146 -696 -674 -1235 -1361 -1389 -695 -155 -1441 146 -1839
742 -206 309 -302 623 -301 988 1 287 52 510 175 767 256 534 808 925 1391
987 124 13 324 11 434 -6z"/>
</g>
</svg>
