<?xml version="1.0" standalone="no"?>
<!DOCTYPE svg PUBLIC "-//W3C//DTD SVG 20010904//EN"
 "http://www.w3.org/TR/2001/REC-SVG-20010904/DTD/svg10.dtd">
<svg version="1.0" xmlns="http://www.w3.org/2000/svg"
 viewBox="0 0 799.000000 768.000000"
 preserveAspectRatio="xMidYMid meet">
<g transform="translate(0.000000,768.000000) scale(0.100000,-0.100000)"
fill="#000000" stroke="none">
<path d="M3878 7303 c-226 -175 -552 -522 -730 -778 -427 -614 -657 -1334
-662 -2072 0 -116 2 -214 5 -217 3 -3 57 14 120 38 63 24 147 54 187 67 l72
23 0 75 c1 393 90 841 244 1219 123 301 280 566 492 831 107 134 365 401 387
401 7 0 86 -75 177 -167 163 -167 265 -290 385 -467 l62 -91 106 -27 c86 -22
340 -101 406 -126 18 -7 -95 211 -178 344 -85 134 -209 306 -306 423 -155 187
-442 460 -608 579 l-45 32 -114 -87z"/>
<path d="M3727 6020 c-43 -4 -113 -13 -157 -20 l-80 -12 -47 -87 c-50 -90
-163 -333 -163 -348 0 -5 49 3 109 18 60 16 158 35 217 44 294 44 553 40 834
-11 731 -133 1356 -581 1727 -1239 100 -176 193 -415 239 -608 18 -79 18 -79
94 -145 41 -36 140 -129 219 -206 l143 -141 -6 105 c-41 682 -360 1365 -864
1852 -221 213 -436 365 -713 505 -318 159 -648 255 -1009 293 -108 11 -426 11
-543 0z"/>
<path d="M2430 5572 c-14 -10 -65 -47 -115 -82 -296 -210 -600 -539 -781 -846
-64 -109 -165 -313 -212 -429 -83 -208 -144 -447 -178 -695 -20 -153 -23 -519
-6 -670 62 -522 256 -1008 567 -1420 40 -52 80 -101 89 -109 13 -11 40 -12
129 -7 148 9 338 26 356 32 10 3 -13 33 -71 92 -213 217 -385 478 -503 762
-222 535 -254 1111 -94 1665 116 401 365 809 667 1096 l59 56 18 99 c16 92 95
417 110 457 9 22 -3 21 -35 -1z"/>
<path d="M5024 5194 c3 -11 14 -62 25 -114 84 -412 88 -851 10 -1275 -115
-624 -421 -1217 -868 -1677 -33 -35 -51 -61 -46 -66 79 -71 285 -222 302 -222
13 0 190 200 280 315 267 345 474 736 602 1139 131 410 193 889 170 1301 -7
128 -26 318 -32 321 -1 0 -30 24 -65 52 -74 61 -196 141 -306 201 -63 35 -77
40 -72 25z"/>
<path d="M3815 4333 c-286 -13 -661 -81 -952 -174 -216 -69 -514 -199 -678
-297 -194 -116 -353 -221 -423 -281 -18 -16 -27 -40 -38 -108 -16 -98 -27
-433 -14 -433 4 0 37 26 73 59 321 291 729 530 1142 671 596 203 1239 233
1847 86 l97 -23 6 26 c6 28 45 329 45 347 0 12 -37 24 -175 53 -278 61 -621
88 -930 74z"/>
<path d="M5666 3923 c-3 -4 -6 -17 -6 -31 0 -13 -11 -88 -25 -166 -14 -77 -27
-153 -30 -168 -4 -23 2 -30 43 -54 485 -281 919 -714 1199 -1199 105 -181 210
-419 282 -637 43 -130 101 -361 93 -370 -12 -11 -240 -75 -362 -102 -145 -31
-293 -53 -452 -66 l-123 -10 -120 -118 c-66 -65 -154 -146 -195 -181 -41 -36
-76 -67 -78 -71 -5 -13 294 -20 463 -10 427 24 772 100 1188 263 l109 42 -7
70 c-21 222 -93 524 -193 805 -100 281 -297 651 -477 896 -237 322 -539 620
-857 845 -171 122 -438 276 -452 262z"/>
<path d="M2870 3546 c-138 -53 -250 -108 -250 -123 0 -15 66 -216 104 -318 76
-201 197 -443 317 -635 393 -628 942 -1107 1628 -1420 l94 -43 51 18 c66 22
317 145 380 185 27 17 45 35 40 40 -5 4 -36 15 -69 25 -242 68 -680 288 -916
460 -512 373 -920 892 -1139 1450 -56 142 -92 247 -116 333 -9 34 -22 62 -28
61 -6 0 -49 -15 -96 -33z"/>
<path d="M917 2678 c-173 -262 -348 -631 -440 -928 -62 -201 -120 -478 -134
-635 -6 -70 -5 -71 23 -84 48 -22 266 -103 314 -116 25 -7 83 -24 130 -38 348
-102 769 -156 1105 -142 582 24 1067 145 1557 391 133 66 318 171 341 193 4 4
-43 50 -105 102 -62 52 -131 111 -153 131 l-41 37 -56 -34 c-99 -59 -339 -171
-478 -223 -216 -81 -439 -139 -655 -171 -413 -62 -767 -53 -1171 30 -138 28
-371 93 -387 108 -11 11 65 298 121 456 57 160 74 200 144 342 l50 103 -37
130 c-20 71 -47 189 -61 262 -13 72 -26 133 -28 135 -2 2 -19 -20 -39 -49z"/>
<path d="M6400 2538 c-27 -113 -105 -320 -177 -466 -358 -729 -1026 -1225
-1841 -1364 -107 -18 -167 -22 -387 -22 -288 -1 -384 11 -650 79 l-130 33 -80
-29 c-70 -26 -378 -116 -460 -134 -28 -7 -25 -10 65 -54 145 -72 318 -138 470
-181 1255 -350 2575 173 3246 1287 116 194 240 467 230 507 -9 35 -255 396
-271 396 -1 0 -9 -24 -15 -52z"/>
</g>
</svg>
