<?xml version="1.0" standalone="no"?>
<!DOCTYPE svg PUBLIC "-//W3C//DTD SVG 20010904//EN"
 "http://www.w3.org/TR/2001/REC-SVG-20010904/DTD/svg10.dtd">
<svg version="1.0" xmlns="http://www.w3.org/2000/svg"
 viewBox="0 0 636.000000 545.000000"
 preserveAspectRatio="xMidYMid meet">
<g transform="translate(0.000000,545.000000) scale(0.100000,-0.100000)"
fill="#000000" stroke="none">
<path d="M5190 5443 c-100 -10 -296 -49 -375 -75 -137 -45 -321 -141 -437
-228 -300 -226 -533 -577 -697 -1054 -34 -97 -38 -117 -23 -111 57 25 240 75
311 85 100 15 256 8 328 -14 28 -9 79 -37 112 -62 111 -83 156 -230 134 -441
-22 -209 -116 -439 -322 -788 -217 -370 -456 -676 -595 -763 -141 -89 -249
-24 -366 220 -153 320 -261 803 -465 2083 -32 203 -75 378 -121 502 -46 124
-64 158 -131 261 -74 111 -165 192 -278 247 -113 55 -194 69 -351 63 -133 -6
-185 -21 -349 -105 -183 -93 -473 -306 -700 -512 -28 -25 -86 -77 -130 -116
-43 -38 -106 -95 -140 -125 -66 -60 -521 -461 -570 -502 l-29 -26 74 -97 c115
-150 152 -198 191 -245 l36 -43 54 40 c140 101 380 245 430 257 15 3 48 -1 73
-8 204 -62 382 -394 566 -1056 28 -102 62 -223 75 -270 28 -99 197 -715 230
-840 105 -394 210 -752 245 -835 193 -460 429 -758 679 -854 76 -30 87 -31
225 -31 80 0 169 5 198 11 148 30 359 116 520 212 398 237 894 712 1372 1317
55 69 123 154 151 190 198 248 552 758 713 1027 211 352 377 714 456 993 65
230 71 277 71 565 0 293 -10 373 -70 553 -47 141 -102 230 -205 333 -134 136
-271 201 -492 233 -95 14 -300 19 -398 9z"/>
</g>
</svg>
